<svg xmlns="http://www.w3.org/2000/svg" viewBox="0 0 700 394"><g fill="none" stroke-width="2"><path stroke="#b390bc" d="m90.54 236.25.02 67.24a.51.44-90 0 0 .44.51h516.5a.5.49 0 0 0 .5-.49l-.02-195.76" vector-effect="non-scaling-stroke"/><path stroke="#a482b0" d="M607.98 107.75q.55-2.83-1.83-2.31-1.34.29-2.65.29l-512.69-.04a.3.3 0 0 0-.3.3l.03 130.26" vector-effect="non-scaling-stroke"/><path stroke="#57126d" d="M607.98 107.75q-2.08-.06-3.54-.79-.49-.24-.95-.24c-169.47-.11-338.96-.16-508.44.02q-3.23 0-3.24 3.23-.19 60.42-.06 120.15c0 2.03-.69 4.18-1.21 6.13" vector-effect="non-scaling-stroke"/><path stroke="#b390bc" d="m149.34 154.16-19.68-15.32a1.06.73 46 0 0-.99-.2l-7.26 3.75a1.05.73 80.6 0 0-.41.86v39a1.18.43-86.4 0 0 .29.98l7.4 3.9a1.27.59-42.3 0 0 1.09-.34l19.51-15.25a.67.5 47.6 0 1 .77.15l31.5 31.5a.94.76 53.8 0 0 .91.24l19.35-7.84a.97.65 83.2 0 0 .43-.84v-64a.86.78-80 0 0-.49-.78l-19.48-7.81a.94.45-49.1 0 0-.78.34l-31.58 31.67a.47.4 41 0 1-.58-.01m239.339-18.14a.26.26 0 0 0-.26-.261l-5.06-.018a.26.26 0 0 0-.26.26l-.178 50.96a.26.26 0 0 0 .26.26l5.06.018a.26.26 0 0 0 .26-.26l.178-50.96M521.18 182.23q.62 2.2.26 4.24a.66.59-84.3 0 0 .57.78l4.5.01a.76.45 90 0 0 .45-.76l.03-50.25a.5.49 90 0 0-.49-.5H522a.5.5 0 0 0-.5.5l-.01 19.94q0 .87-.58.24c-1.47-1.61-2.8-3.26-4.96-3.95-27.51-8.77-28.42 44.7-.36 34.38q1.91-.7 5.15-4.42.38-.44.44-.21m20.51-41.32a3.6 3.6 0 0 0-3.6-3.6 3.6 3.6 0 0 0-3.6 3.6 3.6 3.6 0 0 0 3.6 3.6 3.6 3.6 0 0 0 3.6-3.6m-261.85.01a3.59 3.59 0 0 0-3.59-3.59 3.59 3.59 0 0 0-3.59 3.59 3.59 3.59 0 0 0 3.59 3.59 3.59 3.59 0 0 0 3.59-3.59m128.04 2.72c-4.55 6.13-1.86 14.25 4.15 18.07 4.89 3.11 20.9 10.59 12.85 18.92-4.47 4.62-14.03 1.88-18.72-1.41q-.69-.49-.65.28l.28 5.49a1.11.69 16.6 0 0 .67.75c7.33 3.37 17.81 3.6 23.43-2.76 3.99-4.53 3.78-11.47-.45-16.05-4.59-4.97-16.57-8.5-17.69-15.23-1.8-10.85 12.54-10.14 18.35-6.45q.64.4.62-.24l-.22-5.7a1.07.46 12.3 0 0-.83-.59c-7.45-1.98-16.76-1.86-21.79 4.92m-160.73 35.18-13.79-39.73a.89.5 75.3 0 0-.61-.63l-5.25.06a.58.41 76.4 0 0-.3.75l16.93 46.81a1.11.24 71.7 0 0 .53.89l4.88.28a2.43 1.63-75.2 0 0 1.88-1.65l17.12-46.34a.58.4-76 0 0-.29-.76H263a.87.4-74.2 0 0-.54.63c-1.34 3.86-13.74 39.87-14.67 40.11a.62.51 72.7 0 1-.64-.42M440.7 157.8q.22 8.41.21 16.88c0 7.89 1.25 14.43 10.75 13.29 3.01-.36 4.54-2.01 3.3-5.05a.54.52-21.1 0 0-.68-.29q-7.77 2.75-7.89-5.63-.15-9.72-.13-19.35a.7.69 1.6 0 1 .74-.69l7 .35a.94.41 5.6 0 0 .87-.28q.76-2.11.22-4.36a.92.52-2.7 0 0-.84-.42h-7.5a.5.5 0 0 1-.5-.5v-9a.46.36 82.2 0 0-.49-.47l-4.74 1.71a1.12.35 88.2 0 0-.28 1.01l.01 6.75a.59.48-89.1 0 1-.5.59l-4.75-.12a.7.52.3 0 0-.72.53l.15 4.01a.81.53-2.1 0 0 .83.5l4.56-.13a.68.36 88.3 0 1 .38.67m-134.09 23.36c5.03-14.03-21.24-13.51-14.09-22.65 2.81-3.59 8.83-2.39 12.25-.26q.68.43.66-.06l-.14-4.95a1.05.48 14 0 0-.78-.62c-7.89-2.55-19.93.09-18.47 10.95 1.14 8.5 17.61 8.84 15.41 16.14-1.93 6.43-11.33 3.14-15.02.96a.45.42-71.3 0 0-.64.34q-.33 2.63.59 5.06a1.31.34 18.9 0 0 .86.57c6.36 2.59 16.65 2.09 19.37-5.48m62.1-16.13c-8.36 1.6-21.11 1.07-21.37 12.84-.27 12.34 14.87 12.42 21.39 5.28q.69-.76.75 3.35a.76.53 89.5 0 0 .53.75h4.24a.56.47-89.4 0 0 .47-.55q.11-11.63.01-23.16c-.12-14-13.22-12.97-22.46-9.6a2.7 2.29 83.5 0 0-1.54 2.3l-.2 3.69q-.05.9.67.3c5.43-4.52 18.59-7.33 18.02 4.21a.64.63-4.7 0 1-.51.59m212.666 2.112a15.41 15.41 0 0 0-15.49-15.33l-2.9.016a15.41 15.41 0 0 0-15.33 15.49l.028 5.22a15.41 15.41 0 0 0 15.49 15.33l2.9-.016a15.41 15.41 0 0 0 15.33-15.49l-.028-5.22M278.76 152.705a.29.29 0 0 0-.29-.29l-4.72.01a.29.29 0 0 0-.29.29l.06 34.24a.29.29 0 0 0 .29.29l4.72-.01a.29.29 0 0 0 .29-.29l-.06-34.24m56.84 30.345q-.96 5.96 5.12 4.01a.75.52-12 0 0 .53-.56V153a.67.41 88.9 0 0-.44-.68l-4.56.22a.71.55 88.8 0 0-.52.7q.07 10.6-.02 21.19c-.09 10.5-17.24 13.53-17.76-.19q-.4-10.48-.15-21.01a.73.71-83.1 0 0-.55-.72q-2.12-.5-4.24.05a.71.67 83.2 0 0-.5.68c-.06 12.19-2.6 29.23 6.27 33.7 3.93 1.97 10.2 1.6 13.75-1.71q1.33-1.24 2.75-2.36.4-.3.32.18" vector-effect="non-scaling-stroke"/><path stroke="#b390bc" d="m483.07 182.74.15 3.76a.78.52 88.4 0 0 .53.75h4.5a.75.5-90 0 0 .5-.75V153a.72.47 89 0 0-.5-.73l-4.5.25a.71.55 88.3 0 0-.52.71q.16 17.3-.06 20.96c-.58 9.42-13.96 13.56-17.08 3.66q-.56-1.76-.57-6.32-.01-9.28-.07-18.63a.68.42 88 0 0-.46-.69l-4.74.33a.54.51-2.3 0 0-.51.52q.23 11.76.37 23.49c.15 12.37 15.57 15.38 22.46 6.06q.47-.63.5.13M541 152.78a.27.27 0 0 0-.27-.27h-4.98a.27.27 0 0 0-.27.27v34.18a.27.27 0 0 0 .27.27h4.98a.27.27 0 0 0 .27-.27v-34.18m51.25 63.79a.31.31 0 0 0-.31-.31H106.56a.31.31 0 0 0-.31.31v72.12a.31.31 0 0 0 .31.31h485.38a.31.31 0 0 0 .31-.31v-72.12M181.46 179.2a.33.33 18.1 0 0 .54-.26v-32.18a.33.33-19 0 0-.54-.26l-20.63 16.09a.33.33-44.5 0 0 0 .52l20.63 16.09" vector-effect="non-scaling-stroke"/><path stroke="#b090b8" d="M129.7 151.31a.34.34-67.1 0 0-.58.23l-.16 22.78a.34.34 71.3 0 0 .58.24l11.47-11.3a.34.34-44.4 0 0 0-.49l-11.31-11.46" vector-effect="non-scaling-stroke"/><path stroke="#b390bc" d="M510.374 183.637a13.83 10.73 93.3 0 0 11.508-13.19 13.83 10.73 93.3 0 0-9.916-14.424 13.83 10.73 93.3 0 0-11.508 13.19 13.83 10.73 93.3 0 0 9.916 14.424" vector-effect="non-scaling-stroke"/><path stroke="#b090b8" d="M353.8 174.22c-5.6 10.96 16.7 14.61 15.42-3.98a.54.4 84.2 0 0-.47-.52l-11.56 1.91q-2.27.38-3.39 2.59" vector-effect="non-scaling-stroke"/><path stroke="#b390bc" d="M575.826 166.75a10.3 10.3 0 0 0-10.283-10.318l-1.76-.003a10.3 10.3 0 0 0-10.317 10.281l-.011 6.28a10.3 10.3 0 0 0 10.281 10.318l1.76.004a10.3 10.3 0 0 0 10.318-10.282l.012-6.28" vector-effect="non-scaling-stroke"/><path stroke="#a784b0" d="M345.5 268.27q.71 1.31 2.25.96a1.42 1.22-7.3 0 0 1.11-1.23l-.09-29.5a.74.6-87 0 0-.52-.72l-2.25-.29a.74.45-88.1 0 0-.5.76v8.5a.34.33 14.8 0 1-.51.28c-18.74-10.33-20.65 31.99-.8 20.8a1.01.93 61.1 0 1 1.31.44" vector-effect="non-scaling-stroke"/><path stroke="#a986b3" d="M473.34 257c2.95 2.03 2.61 7.07-.31 8.82-4.04 2.43-10.17.43-13.6-2.35q-.68-.55-.68.02V267a1.15.54 21.7 0 0 .7.74c7.55 3.72 19.55 3.23 19.54-7.68 0-9.07-9.35-6.34-14.13-10.27q-4.34-3.57.76-8.5a1.79 1.7 16.3 0 1 .86-.44c5.13-1 7.33.91 11.1 3a.45.42 15.4 0 0 .67-.35v-3.25a.96.43 21.5 0 0-.59-.61q-5.47-2.66-10.92-1.69c-5.52.97-9.11 6.29-7.17 11.59 2.4 6.53 9.3 4.39 13.77 7.46" vector-effect="non-scaling-stroke"/><path stroke="#a482b0" d="M243.75 250.75v-8.99a.56.5.6 0 1 .57-.5l13.18.19a.74.45.6 0 0 .75-.45v-2.25a.74.36 0 0 0-.74-.36l-16.45.06a.57.29-.8 0 0-.56.3v29.75a.72.47 89 0 0 .5.73l2.58-.11a.87.52 88.1 0 0 .48-.87l-.3-14a.56.27 0 0 1 .56-.27l12.43.02a1.07.73-68 0 0 .75-.5q.56-.89-.01-1.75a.8.2 59.4 0 0-.49-.5h-12.75a.5.5 0 0 1-.5-.5" vector-effect="non-scaling-stroke"/><path stroke="#a986b3" d="M394.985 239.3a1.07 1.07 0 0 0-1.108-1.03l-2.299.083a1.07 1.07 0 0 0-1.03 1.109l.067 1.819a1.07 1.07 0 0 0 1.108 1.03l2.299-.085a1.07 1.07 0 0 0 1.03-1.108l-.067-1.819M134.26 241.19l8.74.31a1.14.48 6.2 0 0 .97-.29q.6-1.11.11-2.29a.96.64-6.9 0 0-.83-.42h-23a.5.5 0 0 0-.5.5v1.75a.85.41 6.1 0 0 .76.47q4.36.59 8.73-.06a.62.59 84.9 0 1 .67.59q.6 13.25 0 26.5a.72.38-86.4 0 0 .33.73l3.01.26a.49.46-87.8 0 0 .5-.49v-27a.56.49-89 0 1 .51-.56m246.45 4.55q.5-2.49-.02-4.98a1.02.23 79.5 0 0-.37-.86q-1.25-.31-2.5-.08a1.16.36-78.8 0 0-.51.94q-.52 2.12-.03 4.23a1.08 1.01 84 0 1-1 1.32q-2.53-.1-1.9 2.25a1.03.8 4.1 0 0 .69.62l1.75.48a.72.53-84.5 0 1 .4.66c.09 6.56-3.13 21.99 9.31 19.16q1.98-.46 1.44-2.37a.81.66 78.6 0 0-.73-.6l-3 .25q-2.95.25-3.11-1.49-.68-7.76-.3-15.52a.5.4-87.5 0 1 .42-.48l5.5.27a.99.6 11.2 0 0 .77-.28q.91-1.3.16-2.69a1.14.53-5.3 0 0-.93-.33l-5.5.01a.53.43 4.4 0 1-.54-.51M149.75 258h14.75a.65.63 1.9 0 0 .65-.59c.93-16.13-18.76-15.78-19.32-.15-.39 10.99 8.35 15.1 17.67 11.15a1.31.53-17.2 0 0 .8-.65q.4-1.58.13-3.2a.51.33-24.8 0 0-.69-.1c-6.72 4.06-14.23 3.32-14.42-5.9a.54.43 88.8 0 1 .43-.56m32 9.76q.84 2.31 3.26 1.39a.78.74 80.3 0 0 .48-.72q.05-7.57-.02-15.15c-.08-8.53-8.93-8.96-15.08-6.8a1.38.74-9.2 0 0-.79.6q-.52 1.2-.1 2.41a.66.41-15.2 0 0 .72.21c3.3-.83 13.38-3.4 11.65 4.09a.7.63 4.2 0 1-.63.49c-6.13.23-14.54 1.2-13.25 9.62 1.04 6.73 8.49 7.41 12.81 3.62a.59.59 59.1 0 1 .95.24m13.81-20.07q-1.07-1.34-2.82-1.45a1.41 1.27 1.9 0 0-1.49 1.26v21a.75.5 90 0 0 .5.75h3a.75.5-90 0 0 .5-.75V252a1.47.94 75.8 0 1 .31-.93q1.95-1.98 4.69-2.63 3.6-.85 3.85 2.3.71 8.74.32 17.51a.94.42-87.8 0 0 .39.96l2.44.04a.75.49 90 0 0 .49-.75l-.01-14.51q0-2.99 2.55-4.38c4.98-2.69 6.98-.32 6.97 4.56q-.01 7.14.01 14.24a.8.73-79.5 0 0 .45.72q1.74.73 3.03-.44a1.21 1.01 71.5 0 0 .34-.86c-.12-4.68.72-15.81-1.62-19.57-3.33-5.35-8.02-1.98-11.83.54a.63.53 53.3 0 1-.76-.18q-4.77-5.86-10.67-.9a.47.42-39.3 0 1-.64-.03" vector-effect="non-scaling-stroke"/><path stroke="#a784b0" d="M270.377 270.02a12.32 10.2 89.5 0 0 10.093-12.409 12.32 10.2 89.5 0 0-10.308-12.23 12.32 10.2 89.5 0 0-10.092 12.408 12.32 10.2 89.5 0 0 10.308 12.23" vector-effect="non-scaling-stroke"/><path stroke="#a986b3" d="M308.67 269.1q1.46.37 2.9 0a.7.59 82.7 0 0 .44-.68q-.28-6.91-.29-13.92c0-3.8 2.03-5.71 5.61-5.97q4.92-.35 5.02 4.81.15 7.41-.34 14.88a.86.47-86.4 0 0 .42.9l3.07.11a.74.48 89.1 0 0 .49-.77c-.2-4.86.81-15.91-1.38-19.7-2.39-4.14-7.46-4.05-11.22-1.27a.95.83-50.1 0 1-.87.14c-1.4-.58-2.71-2.66-4.27-.82a1.54 1.07 72.4 0 0-.29.94l.18 20.56a.84.71-83.9 0 0 .53.79m46.4-11.14c-6.17 7.08 3.51 15.8 11.06 9.81a1.02.45-41.8 0 1 .88-.29q.49.28.66.84a1.12.67 82.6 0 0 .57.72q1.23.37 2.51.19a.8.55 87.9 0 0 .48-.76c.07-5 1.66-19.58-3.5-21.96q-4.9-2.26-11.15-.21c-1.54.5-2.61 1.64-1.42 3.19a.74.66-27.1 0 0 .79.21c4.25-1.4 11.32-3.07 11.79 3.69a.77.77 86.8 0 1-.74.83c-3.97.19-9.2.61-11.93 3.74m54.007 12.08a12.33 10.24 90.2 0 0 10.283-12.294 12.33 10.24 90.2 0 0-10.197-12.366 12.33 10.24 90.2 0 0-10.283 12.294 12.33 10.24 90.2 0 0 10.197 12.366" vector-effect="non-scaling-stroke"/><path stroke="#a784b0" d="M427.17 247.58q-1.14-1.66-3.16-1.31a.76.61 86.1 0 0-.51.73v21.5a.72.47 89 0 0 .5.73l2.76-.18a.81.52 89 0 0 .49-.8v-16.5a1.15 1.11-22.5 0 1 .36-.82c2.33-2.15 7.75-4.06 9.4-.36 1.45 3.25.49 13.84.51 17.85a.67.49 10.3 0 0 .49.52q1.4.4 2.74.13a.65.58 85 0 0 .46-.61c.15-7.75 2.98-30.25-13.22-20.78a.67.55-32.3 0 1-.82-.1" vector-effect="non-scaling-stroke"/><path stroke="#a986b3" d="M486 258h14.75a.55.51-86.9 0 0 .51-.49q.93-9.25-6.21-11.45c-14.97-4.63-18.8 22.65-3.08 23.66 2.57.16 10.41-.29 9.09-4.81a.86.86-27 0 0-1.36-.44c-5.85 4.56-14.61 2.68-14.18-5.9a.6.47-88.1 0 1 .48-.57m58 .02 14.75.07a.66.53 1.4 0 0 .65-.5c.44-7.49-4.51-15.14-12.71-11.28-13.18 6.2-6.03 29.86 10.93 22.18q2.27-1.03 1.24-3.9a.39.38-28 0 0-.59-.17c-6.06 4.32-14.68 3.13-14.72-5.85a.55.45 90 0 1 .45-.55m-246 6.32c-3 2.46-9.64 4.82-9.71-1.84q-.07-7.62-.02-15.27a.88.6-83.7 0 0-.43-.8q-1.79-.59-3.38.21a.96.27 85.3 0 0-.17.87c.24 6.2-2.02 20.79 5.94 22.26q3.83.71 7.59-2.52a.43.33-30.1 0 1 .65.08q.63 2.85 3.48 1.65a.76.67 77.4 0 0 .4-.73q-.65-10.63-.15-21.25a.72.46-88.4 0 0-.45-.75h-2.5a.75.5-90 0 0-.5.75l-.01 15.75a2.08 2.03 70.8 0 1-.74 1.59m96.723-17.327a.74.74 0 0 0-.743-.737l-2.32.008a.74.74 0 0 0-.737.743l.075 21.46a.74.74 0 0 0 .742.737l2.32-.008a.74.74 0 0 0 .737-.743l-.075-21.46m114.818 1.677q-.24-3.12-3.43-2.35a.75.58-8.6 0 0-.57.6l-.03 21.31a.73.55-87.9 0 0 .5.71l2.74.3a.74.45-88.1 0 0 .5-.76v-15.25a1.13.93 73.8 0 1 .35-.82q2.82-2.34 6.54-2.56c1.04-.06 1.66-.63 1.64-1.65a.71.47 85.7 0 1 .39-.69q.58-.1.83.68 2.1 6.43 6.98 19.09c1.03 2.67 3.43 2.78 4.5.02q3.87-10 7.56-20.22a.51.5 18.1 0 0-.34-.66c-2.03-.57-3.03-.42-3.76 1.71q-2.66 7.66-5.36 15.11-.38 1.06-.76-.03l-5.53-15.99a1 .95 85 0 0-.74-.65q-6.45-1.26-11.51 2.32-.45.32-.5-.22" vector-effect="non-scaling-stroke"/><path stroke="#a482b0" d="M567.47 248.99q.27-1.36-.37-2.57a1.15.26.3 0 0-1-.23c-3.2-.12-2.09 1.93-2.09 3.7q-.03 9.14.01 18.32a.85.7-82.7 0 0 .49.78q1.21.4 2.49.24a.57.47-4 0 0 .5-.48v-15.5a1.3.76 79.4 0 1 .33-.92q3.12-2.53 7.16-2.34a.93.35 5.4 0 0 .82-.22q.75-1.56-.22-3.15-.95-1.53-4.03.45l-3.5 2.25q-.76.49-.59-.33" vector-effect="non-scaling-stroke"/><path stroke="#a784b0" d="M335.22 264.74c2.62 3.89 7.94 1.82 10.06-1.34a1.69.86 76.7 0 0 .22-.9l-.01-11.25a1.98 1.9-78.6 0 0-1.14-1.79c-10.69-4.69-13.01 9.52-9.13 15.28" vector-effect="non-scaling-stroke"/><path stroke="#a986b3" d="M161.28 254.19c.41-6.4-7.49-7.41-10.95-2.8q-2.94 3.92 1.9 3.74 4.23-.16 8.51-.42a.58.55-.1 0 0 .54-.52m10.56 6.41c-3.88 7.26 12.16 10.23 10.05-2.74a.62.61 86.5 0 0-.58-.52c-2.8-.08-7.96.44-9.47 3.26" vector-effect="non-scaling-stroke"/><path stroke="#a784b0" d="M270.237 267.08a9.4 6.54 90.2 0 0 6.573-9.377 9.4 6.54 90.2 0 0-6.507-9.423 9.4 6.54 90.2 0 0-6.573 9.377 9.4 6.54 90.2 0 0 6.507 9.423" vector-effect="non-scaling-stroke"/><path stroke="#a986b3" d="M367.1 257.4c-17.51-1.25-8.48 16.47-.11 6.73a1.44.5-42.3 0 0 .44-.81l.25-5.32a.62.57 3.4 0 0-.58-.6m42.004 9.64a9.39 6.55 90.1 0 0 6.566-9.379 9.39 6.55 90.1 0 0-6.534-9.401 9.39 6.55 90.1 0 0-6.566 9.379 9.39 6.55 90.1 0 0 6.534 9.401m76.916-14.7q-1.91 2.61 1.12 2.55l10.09-.23a.55.39 86.9 0 0 .37-.58c-.49-7.38-7.76-6.94-11.58-1.74m60.55-2.77q-2.26 1.74-2.98 4.5a.66.63 6.7 0 0 .65.79l11.01-.11a.71.57 86.9 0 0 .55-.76q-.43-5.37-5.81-5.51-1.94-.05-3.42 1.09" vector-effect="non-scaling-stroke"/></g><path fill="#fff" d="M0 0h700v394H0V0Zm90.54 236.25.02 67.24a.51.44-90 0 0 .44.51h516.5a.5.49 0 0 0 .5-.49l-.02-195.76q.55-2.83-1.83-2.31-1.34.29-2.65.29l-512.69-.04a.3.3 0 0 0-.3.3l.03 130.26Z"/><path fill="#480460" d="M607.98 107.75q-2.08-.06-3.54-.79-.49-.24-.95-.24c-169.47-.11-338.96-.16-508.44.02q-3.23 0-3.24 3.23-.19 60.42-.06 120.15c0 2.03-.69 4.18-1.21 6.13l-.03-130.26a.3.3 0 0 1 .3-.3l512.69.04q1.31 0 2.65-.29 2.38-.52 1.83 2.31Z"/><path fill="#662079" d="m607.98 107.75.02 195.76a.5.49 0 0 1-.5.49H91a.51.44 90 0 1-.44-.51l-.02-67.24c.52-1.95 1.21-4.1 1.21-6.13q-.13-59.73.06-120.15.01-3.23 3.24-3.23c169.48-.18 338.97-.13 508.44-.02q.46 0 .95.24 1.46.73 3.54.79Zm-458.64 46.41-19.68-15.32a1.06.73 46 0 0-.99-.2l-7.26 3.75a1.05.73 80.6 0 0-.41.86v39a1.18.43-86.4 0 0 .29.98l7.4 3.9a1.27.59-42.3 0 0 1.09-.34l19.51-15.25a.67.5 47.6 0 1 .77.15l31.5 31.5a.94.76 53.8 0 0 .91.24l19.35-7.84a.97.65 83.2 0 0 .43-.84v-64a.86.78-80 0 0-.49-.78l-19.48-7.81a.94.45-49.1 0 0-.78.34l-31.58 31.67a.47.4 41 0 1-.58-.01Zm239.339-18.14a.26.26 0 0 0-.26-.261l-5.06-.018a.26.26 0 0 0-.26.26l-.178 50.96a.26.26 0 0 0 .26.26l5.06.018a.26.26 0 0 0 .26-.26l.178-50.96Zm132.501 46.21q.62 2.2.26 4.24a.66.59-84.3 0 0 .57.78l4.5.01a.76.45 90 0 0 .45-.76l.03-50.25a.5.49 90 0 0-.49-.5H522a.5.5 0 0 0-.5.5l-.01 19.94q0 .87-.58.24c-1.47-1.61-2.8-3.26-4.96-3.95-27.51-8.77-28.42 44.7-.36 34.38q1.91-.7 5.15-4.42.38-.44.44-.21Zm20.51-41.32a3.6 3.6 0 0 0-3.6-3.6 3.6 3.6 0 0 0-3.6 3.6 3.6 3.6 0 0 0 3.6 3.6 3.6 3.6 0 0 0 3.6-3.6Zm-261.85.01a3.59 3.59 0 0 0-3.59-3.59 3.59 3.59 0 0 0-3.59 3.59 3.59 3.59 0 0 0 3.59 3.59 3.59 3.59 0 0 0 3.59-3.59Zm128.04 2.72c-4.55 6.13-1.86 14.25 4.15 18.07 4.89 3.11 20.9 10.59 12.85 18.92-4.47 4.62-14.03 1.88-18.72-1.41q-.69-.49-.65.28l.28 5.49a1.11.69 16.6 0 0 .67.75c7.33 3.37 17.81 3.6 23.43-2.76 3.99-4.53 3.78-11.47-.45-16.05-4.59-4.97-16.57-8.5-17.69-15.23-1.8-10.85 12.54-10.14 18.35-6.45q.64.4.62-.24l-.22-5.7a1.07.46 12.3 0 0-.83-.59c-7.45-1.98-16.76-1.86-21.79 4.92Zm-160.73 35.18-13.79-39.73a.89.5 75.3 0 0-.61-.63l-5.25.06a.58.41 76.4 0 0-.3.75l16.93 46.81a1.11.24 71.7 0 0 .53.89l4.88.28a2.43 1.63-75.2 0 0 1.88-1.65l17.12-46.34a.58.4-76 0 0-.29-.76H263a.87.4-74.2 0 0-.54.63c-1.34 3.86-13.74 39.87-14.67 40.11a.62.51 72.7 0 1-.64-.42ZM440.7 157.8q.22 8.41.21 16.88c0 7.89 1.25 14.43 10.75 13.29 3.01-.36 4.54-2.01 3.3-5.05a.54.52-21.1 0 0-.68-.29q-7.77 2.75-7.89-5.63-.15-9.72-.13-19.35a.7.69 1.6 0 1 .74-.69l7 .35a.94.41 5.6 0 0 .87-.28q.76-2.11.22-4.36a.92.52-2.7 0 0-.84-.42h-7.5a.5.5 0 0 1-.5-.5v-9a.46.36 82.2 0 0-.49-.47l-4.74 1.71a1.12.35 88.2 0 0-.28 1.01l.01 6.75a.59.48-89.1 0 1-.5.59l-4.75-.12a.7.52.3 0 0-.72.53l.15 4.01a.81.53-2.1 0 0 .83.5l4.56-.13a.68.36 88.3 0 1 .38.67Zm-134.09 23.36c5.03-14.03-21.24-13.51-14.09-22.65 2.81-3.59 8.83-2.39 12.25-.26q.68.43.66-.06l-.14-4.95a1.05.48 14 0 0-.78-.62c-7.89-2.55-19.93.09-18.47 10.95 1.14 8.5 17.61 8.84 15.41 16.14-1.93 6.43-11.33 3.14-15.02.96a.45.42-71.3 0 0-.64.34q-.33 2.63.59 5.06a1.31.34 18.9 0 0 .86.57c6.36 2.59 16.65 2.09 19.37-5.48Zm62.1-16.13c-8.36 1.6-21.11 1.07-21.37 12.84-.27 12.34 14.87 12.42 21.39 5.28q.69-.76.75 3.35a.76.53 89.5 0 0 .53.75h4.24a.56.47-89.4 0 0 .47-.55q.11-11.63.01-23.16c-.12-14-13.22-12.97-22.46-9.6a2.7 2.29 83.5 0 0-1.54 2.3l-.2 3.69q-.05.9.67.3c5.43-4.52 18.59-7.33 18.02 4.21a.64.63-4.7 0 1-.51.59Zm212.666 2.112a15.41 15.41 0 0 0-15.49-15.33l-2.9.016a15.41 15.41 0 0 0-15.33 15.49l.028 5.22a15.41 15.41 0 0 0 15.49 15.33l2.9-.016a15.41 15.41 0 0 0 15.33-15.49l-.028-5.22ZM278.76 152.705a.29.29 0 0 0-.29-.29l-4.72.01a.29.29 0 0 0-.29.29l.06 34.24a.29.29 0 0 0 .29.29l4.72-.01a.29.29 0 0 0 .29-.29l-.06-34.24Zm56.84 30.345q-.96 5.96 5.12 4.01a.75.52-12 0 0 .53-.56V153a.67.41 88.9 0 0-.44-.68l-4.56.22a.71.55 88.8 0 0-.52.7q.07 10.6-.02 21.19c-.09 10.5-17.24 13.53-17.76-.19q-.4-10.48-.15-21.01a.73.71-83.1 0 0-.55-.72q-2.12-.5-4.24.05a.71.67 83.2 0 0-.5.68c-.06 12.19-2.6 29.23 6.27 33.7 3.93 1.97 10.2 1.6 13.75-1.71q1.33-1.24 2.75-2.36.4-.3.32.18Zm147.47-.31.15 3.76a.78.52 88.4 0 0 .53.75h4.5a.75.5-90 0 0 .5-.75V153a.72.47 89 0 0-.5-.73l-4.5.25a.71.55 88.3 0 0-.52.71q.16 17.3-.06 20.96c-.58 9.42-13.96 13.56-17.08 3.66q-.56-1.76-.57-6.32-.01-9.28-.07-18.63a.68.42 88 0 0-.46-.69l-4.74.33a.54.51-2.3 0 0-.51.52q.23 11.76.37 23.49c.15 12.37 15.57 15.38 22.46 6.06q.47-.63.5.13ZM541 152.78a.27.27 0 0 0-.27-.27h-4.98a.27.27 0 0 0-.27.27v34.18a.27.27 0 0 0 .27.27h4.98a.27.27 0 0 0 .27-.27v-34.18Zm51.25 63.79a.31.31 0 0 0-.31-.31H106.56a.31.31 0 0 0-.31.31v72.12a.31.31 0 0 0 .31.31h485.38a.31.31 0 0 0 .31-.31v-72.12Z"/><path fill="#fff" d="M149.34 154.16a.47.4 41 0 0 .58.01l31.58-31.67a.94.45-49.1 0 1 .78-.34l19.48 7.81a.86.78-80 0 1 .49.78v64a.97.65 83.2 0 1-.43.84l-19.35 7.84a.94.76 53.8 0 1-.91-.24l-31.5-31.5a.67.5 47.6 0 0-.77-.15l-19.51 15.25a1.27.59-42.3 0 1-1.09.34l-7.4-3.9a1.18.43-86.4 0 1-.29-.98v-39a1.05.73 80.6 0 1 .41-.86l7.26-3.75a1.06.73 46 0 1 .99.2l19.68 15.32Zm32.12 25.04a.33.33 18.1 0 0 .54-.26v-32.18a.33.33-19 0 0-.54-.26l-20.63 16.09a.33.33-44.5 0 0 0 .52l20.63 16.09Zm-51.76-27.89a.34.34-67.1 0 0-.58.23l-.16 22.78a.34.34 71.3 0 0 .58.24l11.47-11.3a.34.34-44.4 0 0 0-.49l-11.31-11.46Z"/><rect width="5.58" height="51.48" x="-2.79" y="-25.74" fill="#fff" rx=".26" transform="rotate(.2 -46070.53 110604.191)"/><path fill="#fff" d="M520.74 182.44q-3.24 3.72-5.15 4.42c-28.06 10.32-27.15-43.15.36-34.38 2.16.69 3.49 2.34 4.96 3.95q.58.63.58-.24l.01-19.94a.5.5 0 0 1 .5-.5h4.5a.5.49 90 0 1 .49.5l-.03 50.25a.76.45 90 0 1-.45.76l-4.5-.01a.66.59-84.3 0 1-.57-.78q.36-2.04-.26-4.24-.06-.23-.44.21Zm-10.366 1.197a13.83 10.73 93.3 0 0 11.508-13.19 13.83 10.73 93.3 0 0-9.916-14.424 13.83 10.73 93.3 0 0-11.508 13.19 13.83 10.73 93.3 0 0 9.916 14.424Z"/><circle cx="538.09" cy="140.91" r="3.6" fill="#fff"/><circle cx="276.25" cy="140.92" r="3.59" fill="#fff"/><path fill="#fff" d="M407.88 143.64c5.03-6.78 14.34-6.9 21.79-4.92a1.07.46 12.3 0 1 .83.59l.22 5.7q.02.64-.62.24c-5.81-3.69-20.15-4.4-18.35 6.45 1.12 6.73 13.1 10.26 17.69 15.23 4.23 4.58 4.44 11.52.45 16.05-5.62 6.36-16.1 6.13-23.43 2.76a1.11.69 16.6 0 1-.67-.75l-.28-5.49q-.04-.77.65-.28c4.69 3.29 14.25 6.03 18.72 1.41 8.05-8.33-7.96-15.81-12.85-18.92-6.01-3.82-8.7-11.94-4.15-18.07Zm-160.09 35.6c.93-.24 13.33-36.25 14.67-40.11a.87.4-74.2 0 1 .54-.63h5.25a.58.4-76 0 1 .29.76l-17.12 46.34a2.43 1.63-75.2 0 1-1.88 1.65l-4.88-.28a1.11.24 71.7 0 1-.53-.89l-16.93-46.81a.58.41 76.4 0 1 .3-.75l5.25-.06a.89.5 75.3 0 1 .61.63l13.79 39.73a.62.51 72.7 0 0 .64.42Zm192.53-22.11-4.56.13a.81.53-2.1 0 1-.83-.5l-.15-4.01a.7.52.3 0 1 .72-.53l4.75.12a.59.48-89.1 0 0 .5-.59l-.01-6.75a1.12.35 88.2 0 1 .28-1.01l4.74-1.71a.46.36 82.2 0 1 .49.47v9a.5.5 0 0 0 .5.5h7.5a.92.52-2.7 0 1 .84.42q.54 2.25-.22 4.36a.94.41 5.6 0 1-.87.28l-7-.35a.7.69 1.6 0 0-.74.69q-.02 9.63.13 19.35.12 8.38 7.89 5.63a.54.52-21.1 0 1 .68.29c1.24 3.04-.29 4.69-3.3 5.05-9.5 1.14-10.75-5.4-10.75-13.29q.01-8.47-.21-16.88a.68.36 88.3 0 0-.38-.67Z"/><path fill="#662079" d="m181.46 179.2-20.63-16.09a.33.33-45.7 0 1 0-.52l20.63-16.09a.33.33-32.8 0 1 .54.26v32.18a.33.33 19.6 0 1-.54.26Z"/><path fill="#612070" d="m129.7 151.31 11.31 11.46a.34.34-44.4 0 1 0 .49l-11.47 11.3a.34.34 69.1 0 1-.58-.24l.16-22.78a.34.34-67.1 0 1 .58-.23Z"/><path fill="#fff" d="M292.52 158.51c-7.15 9.14 19.12 8.62 14.09 22.65-2.72 7.57-13.01 8.07-19.37 5.48a1.31.34 18.9 0 1-.86-.57q-.92-2.43-.59-5.06a.45.42-71.3 0 1 .64-.34c3.69 2.18 13.09 5.47 15.02-.96 2.2-7.3-14.27-7.64-15.41-16.14-1.46-10.86 10.58-13.5 18.47-10.95a1.05.48 14 0 1 .78.62l.14 4.95q.02.49-.66.06c-3.42-2.13-9.44-3.33-12.25.26Zm76.7 5.93c.57-11.54-12.59-8.73-18.02-4.21q-.72.6-.67-.3l.2-3.69a2.7 2.29 83.5 0 1 1.54-2.3c9.24-3.37 22.34-4.4 22.46 9.6q.1 11.53-.01 23.16a.56.47-89.4 0 1-.47.55h-4.24a.76.53 89.5 0 1-.53-.75q-.06-4.11-.75-3.35c-6.52 7.14-21.66 7.06-21.39-5.28.26-11.77 13.01-11.24 21.37-12.84a.64.63-4.7 0 0 .51-.59Zm-15.42 9.78c-5.6 10.96 16.7 14.61 15.42-3.98a.54.4 84.2 0 0-.47-.52l-11.56 1.91q-2.27.38-3.39 2.59Zm227.603-1.858a15.41 15.41 0 0 1-15.329 15.49l-2.9.015a15.41 15.41 0 0 1-15.49-15.329l-.027-5.22a15.41 15.41 0 0 1 15.329-15.49l2.9-.015a15.41 15.41 0 0 1 15.49 15.329l.027 5.22Zm-5.577-5.612a10.3 10.3 0 0 0-10.283-10.318l-1.76-.003a10.3 10.3 0 0 0-10.317 10.281l-.011 6.28a10.3 10.3 0 0 0 10.281 10.318l1.76.004a10.3 10.3 0 0 0 10.318-10.282l.012-6.28Z"/><rect width="5.3" height="34.82" x="-2.65" y="-17.41" fill="#fff" rx=".29" transform="rotate(-.1 97443.468 -158131.61)"/><path fill="#fff" d="M335.28 182.87q-1.42 1.12-2.75 2.36c-3.55 3.31-9.82 3.68-13.75 1.71-8.87-4.47-6.33-21.51-6.27-33.7a.71.67 83.2 0 1 .5-.68q2.12-.55 4.24-.05a.73.71-83.1 0 1 .55.72q-.25 10.53.15 21.01c.52 13.72 17.67 10.69 17.76.19q.09-10.59.02-21.19a.71.55 88.8 0 1 .52-.7l4.56-.22a.67.41 88.9 0 1 .44.68v33.5a.75.52-12 0 1-.53.56q-6.08 1.95-5.12-4.01.08-.48-.32-.18Zm147.79-.13q-.03-.76-.5-.13c-6.89 9.32-22.31 6.31-22.46-6.06q-.14-11.73-.37-23.49a.54.51-2.3 0 1 .51-.52l4.74-.33a.68.42 88 0 1 .46.69q.06 9.35.07 18.63.01 4.56.57 6.32c3.12 9.9 16.5 5.76 17.08-3.66q.22-3.66.06-20.96a.71.55 88.3 0 1 .52-.71l4.5-.25a.72.47 89 0 1 .5.73v33.5a.75.5-90 0 1-.5.75h-4.5a.78.52 88.4 0 1-.53-.75l-.15-3.76Z"/><rect width="5.52" height="34.72" x="535.48" y="152.51" fill="#fff" rx=".27"/><ellipse fill="#662079" rx="13.83" ry="10.73" transform="rotate(93.3 175.425 326.188)"/><rect width="22.36" height="26.88" x="-11.18" y="-13.44" fill="#662079" rx="10.3" transform="rotate(.1 -97045.996 323599.742)"/><path fill="#612070" d="M353.8 174.22q1.12-2.21 3.39-2.59l11.56-1.91a.54.4 84.2 0 1 .47.52c1.28 18.59-21.02 14.94-15.42 3.98Z"/><path fill="#fff" d="M592.25 288.69a.31.31 0 0 1-.31.31H106.56a.31.31 0 0 1-.31-.31v-72.12a.31.31 0 0 1 .31-.31h485.38a.31.31 0 0 1 .31.31v72.12ZM345.5 268.27q.71 1.31 2.25.96a1.42 1.22-7.3 0 0 1.11-1.23l-.09-29.5a.74.6-87 0 0-.52-.72l-2.25-.29a.74.45-88.1 0 0-.5.76v8.5a.34.33 14.8 0 1-.51.28c-18.74-10.33-20.65 31.99-.8 20.8a1.01.93 61.1 0 1 1.31.44ZM473.34 257c2.95 2.03 2.61 7.07-.31 8.82-4.04 2.43-10.17.43-13.6-2.35q-.68-.55-.68.02V267a1.15.54 21.7 0 0 .7.74c7.55 3.72 19.55 3.23 19.54-7.68 0-9.07-9.35-6.34-14.13-10.27q-4.34-3.57.76-8.5a1.79 1.7 16.3 0 1 .86-.44c5.13-1 7.33.91 11.1 3a.45.42 15.4 0 0 .67-.35v-3.25a.96.43 21.5 0 0-.59-.61q-5.47-2.66-10.92-1.69c-5.52.97-9.11 6.29-7.17 11.59 2.4 6.53 9.3 4.39 13.77 7.46Zm-229.59-6.25v-8.99a.56.5.6 0 1 .57-.5l13.18.19a.74.45.6 0 0 .75-.45v-2.25a.74.36 0 0 0-.74-.36l-16.45.06a.57.29-.8 0 0-.56.3v29.75a.72.47 89 0 0 .5.73l2.58-.11a.87.52 88.1 0 0 .48-.87l-.3-14a.56.27 0 0 1 .56-.27l12.43.02a1.07.73-68 0 0 .75-.5q.56-.89-.01-1.75a.8.2 59.4 0 0-.49-.5h-12.75a.5.5 0 0 1-.5-.5Zm151.235-11.45a1.07 1.07 0 0 0-1.108-1.03l-2.299.083a1.07 1.07 0 0 0-1.03 1.109l.067 1.819a1.07 1.07 0 0 0 1.108 1.03l2.299-.085a1.07 1.07 0 0 0 1.03-1.108l-.067-1.819Zm-260.725 1.89 8.74.31a1.14.48 6.2 0 0 .97-.29q.6-1.11.11-2.29a.96.64-6.9 0 0-.83-.42h-23a.5.5 0 0 0-.5.5v1.75a.85.41 6.1 0 0 .76.47q4.36.59 8.73-.06a.62.59 84.9 0 1 .67.59q.6 13.25 0 26.5a.72.38-86.4 0 0 .33.73l3.01.26a.49.46-87.8 0 0 .5-.49v-27a.56.49-89 0 1 .51-.56Zm246.45 4.55q.5-2.49-.02-4.98a1.02.23 79.5 0 0-.37-.86q-1.25-.31-2.5-.08a1.16.36-78.8 0 0-.51.94q-.52 2.12-.03 4.23a1.08 1.01 84 0 1-1 1.32q-2.53-.1-1.9 2.25a1.03.8 4.1 0 0 .69.62l1.75.48a.72.53-84.5 0 1 .4.66c.09 6.56-3.13 21.99 9.31 19.16q1.98-.46 1.44-2.37a.81.66 78.6 0 0-.73-.6l-3 .25q-2.95.25-3.11-1.49-.68-7.76-.3-15.52a.5.4-87.5 0 1 .42-.48l5.5.27a.99.6 11.2 0 0 .77-.28q.91-1.3.16-2.69a1.14.53-5.3 0 0-.93-.33l-5.5.01a.53.43 4.4 0 1-.54-.51ZM149.75 258h14.75a.65.63 1.9 0 0 .65-.59c.93-16.13-18.76-15.78-19.32-.15-.39 10.99 8.35 15.1 17.67 11.15a1.31.53-17.2 0 0 .8-.65q.4-1.58.13-3.2a.51.33-24.8 0 0-.69-.1c-6.72 4.06-14.23 3.32-14.42-5.9a.54.43 88.8 0 1 .43-.56Zm32 9.76q.84 2.31 3.26 1.39a.78.74 80.3 0 0 .48-.72q.05-7.57-.02-15.15c-.08-8.53-8.93-8.96-15.08-6.8a1.38.74-9.2 0 0-.79.6q-.52 1.2-.1 2.41a.66.41-15.2 0 0 .72.21c3.3-.83 13.38-3.4 11.65 4.09a.7.63 4.2 0 1-.63.49c-6.13.23-14.54 1.2-13.25 9.62 1.04 6.73 8.49 7.41 12.81 3.62a.59.59 59.1 0 1 .95.24Zm13.81-20.07q-1.07-1.34-2.82-1.45a1.41 1.27 1.9 0 0-1.49 1.26v21a.75.5 90 0 0 .5.75h3a.75.5-90 0 0 .5-.75V252a1.47.94 75.8 0 1 .31-.93q1.95-1.98 4.69-2.63 3.6-.85 3.85 2.3.71 8.74.32 17.51a.94.42-87.8 0 0 .39.96l2.44.04a.75.49 90 0 0 .49-.75l-.01-14.51q0-2.99 2.55-4.38c4.98-2.69 6.98-.32 6.97 4.56q-.01 7.14.01 14.24a.8.73-79.5 0 0 .45.72q1.74.73 3.03-.44a1.21 1.01 71.5 0 0 .34-.86c-.12-4.68.72-15.81-1.62-19.57-3.33-5.35-8.02-1.98-11.83.54a.63.53 53.3 0 1-.76-.18q-4.77-5.86-10.67-.9a.47.42-39.3 0 1-.64-.03Zm74.817 22.33a12.32 10.2 89.5 0 0 10.093-12.409 12.32 10.2 89.5 0 0-10.308-12.23 12.32 10.2 89.5 0 0-10.092 12.408 12.32 10.2 89.5 0 0 10.308 12.23Zm38.293-.92q1.46.37 2.9 0a.7.59 82.7 0 0 .44-.68q-.28-6.91-.29-13.92c0-3.8 2.03-5.71 5.61-5.97q4.92-.35 5.02 4.81.15 7.41-.34 14.88a.86.47-86.4 0 0 .42.9l3.07.11a.74.48 89.1 0 0 .49-.77c-.2-4.86.81-15.91-1.38-19.7-2.39-4.14-7.46-4.05-11.22-1.27a.95.83-50.1 0 1-.87.14c-1.4-.58-2.71-2.66-4.27-.82a1.54 1.07 72.4 0 0-.29.94l.18 20.56a.84.71-83.9 0 0 .53.79Zm46.4-11.14c-6.17 7.08 3.51 15.8 11.06 9.81a1.02.45-41.8 0 1 .88-.29q.49.28.66.84a1.12.67 82.6 0 0 .57.72q1.23.37 2.51.19a.8.55 87.9 0 0 .48-.76c.07-5 1.66-19.58-3.5-21.96q-4.9-2.26-11.15-.21c-1.54.5-2.61 1.64-1.42 3.19a.74.66-27.1 0 0 .79.21c4.25-1.4 11.32-3.07 11.79 3.69a.77.77 86.8 0 1-.74.83c-3.97.19-9.2.61-11.93 3.74Zm54.007 12.08a12.33 10.24 90.2 0 0 10.283-12.294 12.33 10.24 90.2 0 0-10.197-12.366 12.33 10.24 90.2 0 0-10.283 12.294 12.33 10.24 90.2 0 0 10.197 12.366Zm18.093-22.46q-1.14-1.66-3.16-1.31a.76.61 86.1 0 0-.51.73v21.5a.72.47 89 0 0 .5.73l2.76-.18a.81.52 89 0 0 .49-.8v-16.5a1.15 1.11-22.5 0 1 .36-.82c2.33-2.15 7.75-4.06 9.4-.36 1.45 3.25.49 13.84.51 17.85a.67.49 10.3 0 0 .49.52q1.4.4 2.74.13a.65.58 85 0 0 .46-.61c.15-7.75 2.98-30.25-13.22-20.78a.67.55-32.3 0 1-.82-.1ZM486 258h14.75a.55.51-86.9 0 0 .51-.49q.93-9.25-6.21-11.45c-14.97-4.63-18.8 22.65-3.08 23.66 2.57.16 10.41-.29 9.09-4.81a.86.86-27 0 0-1.36-.44c-5.85 4.56-14.61 2.68-14.18-5.9a.6.47-88.1 0 1 .48-.57Zm58 .02 14.75.07a.66.53 1.4 0 0 .65-.5c.44-7.49-4.51-15.14-12.71-11.28-13.18 6.2-6.03 29.86 10.93 22.18q2.27-1.03 1.24-3.9a.39.38-28 0 0-.59-.17c-6.06 4.32-14.68 3.13-14.72-5.85a.55.45 90 0 1 .45-.55Zm-246 6.32c-3 2.46-9.64 4.82-9.71-1.84q-.07-7.62-.02-15.27a.88.6-83.7 0 0-.43-.8q-1.79-.59-3.38.21a.96.27 85.3 0 0-.17.87c.24 6.2-2.02 20.79 5.94 22.26q3.83.71 7.59-2.52a.43.33-30.1 0 1 .65.08q.63 2.85 3.48 1.65a.76.67 77.4 0 0 .4-.73q-.65-10.63-.15-21.25a.72.46-88.4 0 0-.45-.75h-2.5a.75.5-90 0 0-.5.75l-.01 15.75a2.08 2.03 70.8 0 1-.74 1.59Zm96.723-17.327a.74.74 0 0 0-.743-.737l-2.32.008a.74.74 0 0 0-.737.743l.075 21.46a.74.74 0 0 0 .742.737l2.32-.008a.74.74 0 0 0 .737-.743l-.075-21.46Zm114.817 1.677q-.24-3.12-3.43-2.35a.75.58-8.6 0 0-.57.6l-.03 21.31a.73.55-87.9 0 0 .5.71l2.74.3a.74.45-88.1 0 0 .5-.76v-15.25a1.13.93 73.8 0 1 .35-.82q2.82-2.34 6.54-2.56c1.04-.06 1.66-.63 1.64-1.65a.71.47 85.7 0 1 .39-.69q.58-.1.83.68 2.1 6.43 6.98 19.09c1.03 2.67 3.43 2.78 4.5.02q3.87-10 7.56-20.22a.51.5 18.1 0 0-.34-.66c-2.03-.57-3.03-.42-3.76 1.71q-2.66 7.66-5.36 15.11-.38 1.06-.76-.03l-5.53-15.99a1 .95 85 0 0-.74-.65q-6.45-1.26-11.51 2.32-.45.32-.5-.22Zm57.93.3q.27-1.36-.37-2.57a1.15.26.3 0 0-1-.23c-3.2-.12-2.09 1.93-2.09 3.7q-.03 9.14.01 18.32a.85.7-82.7 0 0 .49.78q1.21.4 2.49.24a.57.47-4 0 0 .5-.48v-15.5a1.3.76 79.4 0 1 .33-.92q3.12-2.53 7.16-2.34a.93.35 5.4 0 0 .82-.22q.75-1.56-.22-3.15-.95-1.53-4.03.45l-3.5 2.25q-.76.49-.59-.33Z"/><path fill="#4f0960" d="M345.5 268.27a1.01.93 61.1 0 0-1.31-.44c-19.85 11.19-17.94-31.13.8-20.8a.34.33 14.8 0 0 .51-.28v-8.5a.74.45-88.1 0 1 .5-.76l2.25.29a.74.6-87 0 1 .52.72l.09 29.5a1.42 1.22-7.3 0 1-1.11 1.23q-1.54.35-2.25-.96Zm-10.28-3.53c2.62 3.89 7.94 1.82 10.06-1.34a1.69.86 76.7 0 0 .22-.9l-.01-11.25a1.98 1.9-78.6 0 0-1.14-1.79c-10.69-4.69-13.01 9.52-9.13 15.28Z"/><path fill="#530d67" d="M473.34 257c-4.47-3.07-11.37-.93-13.77-7.46-1.94-5.3 1.65-10.62 7.17-11.59q5.45-.97 10.92 1.69a.96.43 21.5 0 1 .59.61v3.25a.45.42 15.4 0 1-.67.35c-3.77-2.09-5.97-4-11.1-3a1.79 1.7 16.3 0 0-.86.44q-5.1 4.93-.76 8.5c4.78 3.93 14.13 1.2 14.13 10.27.01 10.91-11.99 11.4-19.54 7.68a1.15.54 21.7 0 1-.7-.74v-3.51q0-.57.68-.02c3.43 2.78 9.56 4.78 13.6 2.35 2.92-1.75 3.26-6.79.31-8.82Z"/><path fill="#480460" d="M244.25 251.25H257a.8.2 59.4 0 1 .49.5q.57.86.01 1.75a1.07.73-68 0 1-.75.5l-12.43-.02a.56.27 0 0 0-.56.27l.3 14a.87.52 88.1 0 1-.48.87l-2.58.11a.72.47 89 0 1-.5-.73v-29.75a.57.29-.8 0 1 .56-.3l16.45-.06a.74.36 0 0 1 .74.36V241a.74.45.6 0 1-.75.45l-13.18-.19a.56.5.6 0 0-.57.5v8.99a.5.5 0 0 0 .5.5Z"/><rect width="4.44" height="3.96" x="-2.22" y="-1.98" fill="#530d67" rx="1.07" transform="rotate(-2.1 6751.667 -10595.694)"/><path fill="#530d67" d="M133.75 241.75v27a.49.46-87.8 0 1-.5.49l-3.01-.26a.72.38-86.4 0 1-.33-.73q.6-13.25 0-26.5a.62.59 84.9 0 0-.67-.59q-4.37.65-8.73.06a.85.41 6.1 0 1-.76-.47V239a.5.5 0 0 1 .5-.5h23a.96.64-6.9 0 1 .83.42q.49 1.18-.11 2.29a1.14.48 6.2 0 1-.97.29l-8.74-.31a.56.49-89 0 0-.51.56Zm247.5 4.5 5.5-.01a1.14.53-5.3 0 1 .93.33q.75 1.39-.16 2.69a.99.6 11.2 0 1-.77.28l-5.5-.27a.5.4-87.5 0 0-.42.48q-.38 7.76.3 15.52.16 1.74 3.11 1.49l3-.25a.81.66 78.6 0 1 .73.6q.54 1.91-1.44 2.37c-12.44 2.83-9.22-12.6-9.31-19.16a.72.53-84.5 0 0-.4-.66l-1.75-.48a1.03.8 4.1 0 1-.69-.62q-.63-2.35 1.9-2.25a1.08 1.01 84 0 0 1-1.32q-.49-2.11.03-4.23a1.16.36-78.8 0 1 .51-.94q1.25-.23 2.5.08a1.02.23 79.5 0 1 .37.86q.52 2.49.02 4.98a.53.43 4.4 0 0 .54.51Zm-231.93 12.31c.19 9.22 7.7 9.96 14.42 5.9a.51.33-24.8 0 1 .69.1q.27 1.62-.13 3.2a1.31.53-17.2 0 1-.8.65c-9.32 3.95-18.06-.16-17.67-11.15.56-15.63 20.25-15.98 19.32.15a.65.63 1.9 0 1-.65.59h-14.75a.54.43 88.8 0 0-.43.56Zm11.96-4.37c.41-6.4-7.49-7.41-10.95-2.8q-2.94 3.92 1.9 3.74 4.23-.16 8.51-.42a.58.55-.1 0 0 .54-.52Zm20.47 13.57a.59.59 59.1 0 0-.95-.24c-4.32 3.79-11.77 3.11-12.81-3.62-1.29-8.42 7.12-9.39 13.25-9.62a.7.63 4.2 0 0 .63-.49c1.73-7.49-8.35-4.92-11.65-4.09a.66.41-15.2 0 1-.72-.21q-.42-1.21.1-2.41a1.38.74-9.2 0 1 .79-.6c6.15-2.16 15-1.73 15.08 6.8q.07 7.58.02 15.15a.78.74 80.3 0 1-.48.72q-2.42.92-3.26-1.39Zm-9.91-7.16c-3.88 7.26 12.16 10.23 10.05-2.74a.62.61 86.5 0 0-.58-.52c-2.8-.08-7.96.44-9.47 3.26Zm23.72-12.91a.47.42-39.3 0 0 .64.03q5.9-4.96 10.67.9a.63.53 53.3 0 0 .76.18c3.81-2.52 8.5-5.89 11.83-.54 2.34 3.76 1.5 14.89 1.62 19.57a1.21 1.01 71.5 0 1-.34.86q-1.29 1.17-3.03.44a.8.73-79.5 0 1-.45-.72q-.02-7.1-.01-14.24c.01-4.88-1.99-7.25-6.97-4.56q-2.55 1.39-2.55 4.38l.01 14.51a.75.49-90 0 1-.49.75l-2.44-.04a.94.42-87.8 0 1-.39-.96q.39-8.77-.32-17.51-.25-3.15-3.85-2.3-2.74.65-4.69 2.63a1.47.94 75.8 0 0-.31.93v16.5a.75.5-90 0 1-.5.75h-3a.75.5 90 0 1-.5-.75v-21a1.41 1.27 1.9 0 1 1.49-1.26q1.75.11 2.82 1.45Z"/><path fill="#4f0960" d="M270.377 270.02a12.32 10.2 89.5 0 1-10.307-12.231 12.32 10.2 89.5 0 1 10.093-12.408 12.32 10.2 89.5 0 1 10.307 12.23 12.32 10.2 89.5 0 1-10.093 12.409Zm-.14-2.94a9.4 6.54 90.2 0 0 6.573-9.377 9.4 6.54 90.2 0 0-6.507-9.423 9.4 6.54 90.2 0 0-6.573 9.377 9.4 6.54 90.2 0 0 6.507 9.423Z"/><path fill="#530d67" d="M308.67 269.1a.84.71-83.9 0 1-.53-.79l-.18-20.56a1.54 1.07 72.4 0 1 .29-.94c1.56-1.84 2.87.24 4.27.82a.95.83-50.1 0 0 .87-.14c3.76-2.78 8.83-2.87 11.22 1.27 2.19 3.79 1.18 14.84 1.38 19.7a.74.48 89.1 0 1-.49.77l-3.07-.11a.86.47-86.4 0 1-.42-.9q.49-7.47.34-14.88-.1-5.16-5.02-4.81c-3.58.26-5.61 2.17-5.61 5.97q.01 7.01.29 13.92a.7.59 82.7 0 1-.44.68q-1.44.37-2.9 0Zm57.46-1.33c-7.55 5.99-17.23-2.73-11.06-9.81 2.73-3.13 7.96-3.55 11.93-3.74a.77.77 86.8 0 0 .74-.83c-.47-6.76-7.54-5.09-11.79-3.69a.74.66-27.1 0 1-.79-.21c-1.19-1.55-.12-2.69 1.42-3.19q6.25-2.05 11.15.21c5.16 2.38 3.57 16.96 3.5 21.96a.8.55 87.9 0 1-.48.76q-1.28.18-2.51-.19a1.12.67 82.6 0 1-.57-.72q-.17-.56-.66-.84a1.02.45-41.8 0 0-.88.29Zm.97-10.37c-17.51-1.25-8.48 16.47-.11 6.73a1.44.5-42.3 0 0 .44-.81l.25-5.32a.62.57 3.4 0 0-.58-.6Zm41.977 12.64a12.33 10.24 90.2 0 1-10.197-12.366 12.33 10.24 90.2 0 1 10.283-12.294 12.33 10.24 90.2 0 1 10.197 12.366 12.33 10.24 90.2 0 1-10.283 12.294Zm.027-3a9.39 6.55 90.1 0 0 6.566-9.379 9.39 6.55 90.1 0 0-6.534-9.401 9.39 6.55 90.1 0 0-6.566 9.379 9.39 6.55 90.1 0 0 6.534 9.401Z"/><path fill="#4f0960" d="M427.99 247.68c16.2-9.47 13.37 13.03 13.22 20.78a.65.58 85 0 1-.46.61q-1.34.27-2.74-.13a.67.49 10.3 0 1-.49-.52c-.02-4.01.94-14.6-.51-17.85-1.65-3.7-7.07-1.79-9.4.36a1.15 1.11-22.5 0 0-.36.82v16.5a.81.52 89 0 1-.49.8l-2.76.18a.72.47 89 0 1-.5-.73V247a.76.61 86.1 0 1 .51-.73q2.02-.35 3.16 1.31a.67.55-32.3 0 0 .82.1Z"/><path fill="#530d67" d="M485.52 258.57c-.43 8.58 8.33 10.46 14.18 5.9a.86.86-27 0 1 1.36.44c1.32 4.52-6.52 4.97-9.09 4.81-15.72-1.01-11.89-28.29 3.08-23.66q7.14 2.2 6.21 11.45a.55.51-86.9 0 1-.51.49H486a.6.47-88.1 0 0-.48.57Zm.5-6.23q-1.91 2.61 1.12 2.55l10.09-.23a.55.39 86.9 0 0 .37-.58c-.49-7.38-7.76-6.94-11.58-1.74Zm57.53 6.23c.04 8.98 8.66 10.17 14.72 5.85a.39.38-28 0 1 .59.17q1.03 2.87-1.24 3.9c-16.96 7.68-24.11-15.98-10.93-22.18 8.2-3.86 13.15 3.79 12.71 11.28a.66.53 1.4 0 1-.65.5l-14.75-.07a.55.45 90 0 0-.45.55Zm3.02-9q-2.26 1.74-2.98 4.5a.66.63 6.7 0 0 .65.79l11.01-.11a.71.57 86.9 0 0 .55-.76q-.43-5.37-5.81-5.51-1.94-.05-3.42 1.09ZM298 264.34a2.08 2.03 70.8 0 0 .74-1.59l.01-15.75a.75.5-90 0 1 .5-.75h2.5a.72.46-88.4 0 1 .45.75q-.5 10.62.15 21.25a.76.67 77.4 0 1-.4.73q-2.85 1.2-3.48-1.65a.43.33-30.1 0 0-.65-.08q-3.76 3.23-7.59 2.52c-7.96-1.47-5.7-16.06-5.94-22.26a.96.27 85.3 0 1 .17-.87q1.59-.8 3.38-.21a.88.6-83.7 0 1 .43.8q-.05 7.65.02 15.27c.07 6.66 6.71 4.3 9.71 1.84Z"/><rect width="3.8" height="22.94" x="-1.9" y="-11.47" fill="#530d67" rx=".74" transform="rotate(-.2 74036.29 -112417.11)"/><path fill="#530d67" d="M510.04 248.91q5.06-3.58 11.51-2.32a1 .95 85 0 1 .74.65l5.53 15.99q.38 1.09.76.03 2.7-7.45 5.36-15.11c.73-2.13 1.73-2.28 3.76-1.71a.51.5 18.1 0 1 .34.66q-3.69 10.22-7.56 20.22c-1.07 2.76-3.47 2.65-4.5-.02q-4.88-12.66-6.98-19.09-.25-.78-.83-.68a.71.47 85.7 0 0-.39.69c.02 1.02-.6 1.59-1.64 1.65q-3.72.22-6.54 2.56a1.13.93 73.8 0 0-.35.82v15.25a.74.45-88.1 0 1-.5.76l-2.74-.3a.73.55-87.9 0 1-.5-.71l.03-21.31a.75.58-8.6 0 1 .57-.6q3.19-.77 3.43 2.35.05.54.5.22Z"/><path fill="#480460" d="m568.06 249.32 3.5-2.25q3.08-1.98 4.03-.45.97 1.59.22 3.15a.93.35 5.4 0 1-.82.22q-4.04-.19-7.16 2.34a1.3.76 79.4 0 0-.33.92v15.5a.57.47-4 0 1-.5.48q-1.28.16-2.49-.24a.85.7-82.7 0 1-.49-.78q-.04-9.18-.01-18.32c0-1.77-1.11-3.82 2.09-3.7a1.15.26.3 0 1 1 .23q.64 1.21.37 2.57-.17.82.59.33Z"/><path fill="#fff" d="M150.33 251.39c3.46-4.61 11.36-3.6 10.95 2.8a.58.55-.1 0 1-.54.52q-4.28.26-8.51.42-4.84.18-1.9-3.74Z"/><ellipse fill="#fff" rx="9.4" ry="6.54" transform="rotate(90.2 6.744 263.504)"/><path fill="#fff" d="M335.22 264.74c-3.88-5.76-1.56-19.97 9.13-15.28a1.98 1.9-78.6 0 1 1.14 1.79l.01 11.25a1.69.86 76.7 0 1-.22.9c-2.12 3.16-7.44 5.23-10.06 1.34Z"/><ellipse fill="#fff" rx="9.39" ry="6.55" transform="rotate(90.1 75.96 333.028)"/><path fill="#fff" d="M486.02 252.34c3.82-5.2 11.09-5.64 11.58 1.74a.55.39 86.9 0 1-.37.58l-10.09.23q-3.03.06-1.12-2.55Zm60.55-2.77q1.48-1.14 3.42-1.09 5.38.14 5.81 5.51a.71.57 86.9 0 1-.55.76l-11.01.11a.66.63 6.7 0 1-.65-.79q.72-2.76 2.98-4.5Zm-364.68 8.29c2.11 12.97-13.93 10-10.05 2.74 1.51-2.82 6.67-3.34 9.47-3.26a.62.61 86.5 0 1 .58.52Zm185.1 6.27c-8.37 9.74-17.4-7.98.11-6.73a.62.57 3.4 0 1 .58.6l-.25 5.32a1.44.5-42.3 0 1-.44.81Z"/></svg>